<svg xmlns="http://www.w3.org/2000/svg" width="2000" height="2660" viewBox="0 0 1000 1330" style="font-family:Arial,Helvetica,sans-serif;">
<rect width="1000" height="1330" fill="#FFFFFF"/>

<text font-weight="700" font-size="22" x="500" y="34" text-anchor="middle" fill="#1a1a1a">IodineGenomics: comparative genomics pipeline</text>
<text font-size="14" x="500" y="56" text-anchor="middle" fill="#666666">Microbial iodine transformation potential from bacterial genome sequences</text>

<!-- ===== PHASE 1 ===== -->
<text font-weight="700" font-size="14" x="50" y="98" fill="#0F6E56">PHASE 1</text>
<text font-size="14" x="110" y="98" fill="#555555">Data acquisition (multiple entry points)</text>
<line x1="50" y1="106" x2="950" y2="106" stroke="#D0D0D0" stroke-width="0.8"/>

<rect x="50" y="120" width="190" height="48" rx="8" fill="#E1F5EE" stroke="#1D9E75" stroke-width="1"/>
<text font-size="13" font-weight="700" x="145" y="140" text-anchor="middle" fill="#085041">FASTQ reads</text>
<text font-size="11" x="145" y="157" text-anchor="middle" fill="#0F6E56">Raw paired-end reads</text>

<rect x="270" y="120" width="190" height="48" rx="8" fill="#E1F5EE" stroke="#1D9E75" stroke-width="1"/>
<text font-size="13" font-weight="700" x="365" y="140" text-anchor="middle" fill="#085041">FASTA assemblies</text>
<text font-size="11" x="365" y="157" text-anchor="middle" fill="#0F6E56">Pre-assembled genomes</text>

<rect x="490" y="120" width="190" height="48" rx="8" fill="#E1F5EE" stroke="#1D9E75" stroke-width="1"/>
<text font-size="13" font-weight="700" x="585" y="140" text-anchor="middle" fill="#085041">Proteomes (.faa)</text>
<text font-size="11" x="585" y="157" text-anchor="middle" fill="#0F6E56">Pre-annotated proteins</text>

<rect x="710" y="120" width="200" height="48" rx="8" fill="#E1F5EE" stroke="#1D9E75" stroke-width="1"/>
<text font-size="13" font-weight="700" x="810" y="140" text-anchor="middle" fill="#085041">Reference genomes</text>
<text font-size="11" x="810" y="157" text-anchor="middle" fill="#0F6E56">NCBI GenBank / RefSeq</text>

<!-- Entry point labels -->
<text font-size="10" font-style="italic" x="145" y="184" text-anchor="middle" fill="#1D9E75">starts at Phase 2</text>
<text font-size="10" font-style="italic" x="365" y="184" text-anchor="middle" fill="#1D9E75">starts at Phase 4</text>
<text font-size="10" font-style="italic" x="585" y="184" text-anchor="middle" fill="#1D9E75">starts at Phase 5</text>

<defs><marker id="arrow" viewBox="0 0 10 10" refX="8" refY="5" markerWidth="7" markerHeight="7" orient="auto-start-reverse"><path d="M2 1L8 5L2 9" fill="none" stroke="context-stroke" stroke-width="1.5" stroke-linecap="round" stroke-linejoin="round"/></marker></defs>

<!-- Arrow down from FASTQ -->
<line x1="145" y1="168" x2="145" y2="220" stroke="#888888" stroke-width="1.2" marker-end="url(#arrow)"/>

<!-- ===== PHASE 2 ===== -->
<text font-weight="700" font-size="14" x="50" y="240" fill="#185FA5">PHASE 2</text>
<text font-size="14" x="110" y="240" fill="#555555">Quality control and preprocessing</text>
<line x1="50" y1="248" x2="950" y2="248" stroke="#D0D0D0" stroke-width="0.8"/>

<rect x="50" y="264" width="180" height="50" rx="8" fill="#E6F1FB" stroke="#378ADD" stroke-width="1"/>
<text font-size="13" font-weight="700" x="140" y="284" text-anchor="middle" fill="#042C53">fastp</text>
<text font-size="11" x="140" y="302" text-anchor="middle" fill="#185FA5">Adapter + quality trimming</text>

<line x1="230" y1="289" x2="268" y2="289" stroke="#378ADD" stroke-width="1.2" marker-end="url(#arrow)"/>

<rect x="268" y="264" width="180" height="50" rx="8" fill="#E6F1FB" stroke="#378ADD" stroke-width="1"/>
<text font-size="13" font-weight="700" x="358" y="284" text-anchor="middle" fill="#042C53">MultiQC</text>
<text font-size="11" x="358" y="302" text-anchor="middle" fill="#185FA5">Aggregated QC report</text>

<line x1="448" y1="289" x2="486" y2="289" stroke="#378ADD" stroke-width="1.2" marker-end="url(#arrow)"/>

<rect x="486" y="264" width="250" height="50" rx="8" fill="#E6F1FB" stroke="#378ADD" stroke-width="1"/>
<text font-size="13" font-weight="700" x="611" y="284" text-anchor="middle" fill="#042C53">SPAdes --only-error-correction</text>
<text font-size="11" x="611" y="302" text-anchor="middle" fill="#185FA5">Read error correction</text>

<line x1="500" y1="314" x2="500" y2="358" stroke="#888888" stroke-width="1.2" marker-end="url(#arrow)"/>
<text font-size="10" font-style="italic" x="515" y="342" fill="#999999">corrected reads (.fastq.gz)</text>

<!-- ===== PHASE 3 ===== -->
<text font-weight="700" font-size="14" x="50" y="378" fill="#534AB7">PHASE 3</text>
<text font-size="14" x="110" y="378" fill="#555555">De novo assembly and quality evaluation</text>
<line x1="50" y1="386" x2="950" y2="386" stroke="#D0D0D0" stroke-width="0.8"/>

<rect x="50" y="402" width="150" height="50" rx="8" fill="#EEEDFE" stroke="#7F77DD" stroke-width="1"/>
<text font-size="13" font-weight="700" x="125" y="422" text-anchor="middle" fill="#26215C">SPAdes</text>
<text font-size="11" x="125" y="440" text-anchor="middle" fill="#534AB7">--careful assembly</text>

<rect x="220" y="402" width="150" height="50" rx="8" fill="#EEEDFE" stroke="#7F77DD" stroke-width="1"/>
<text font-size="13" font-weight="700" x="295" y="422" text-anchor="middle" fill="#26215C">Megahit</text>
<text font-size="11" x="295" y="440" text-anchor="middle" fill="#534AB7">Alternative assembler</text>

<line x1="370" y1="427" x2="410" y2="427" stroke="#7F77DD" stroke-width="1.2" marker-end="url(#arrow)"/>

<rect x="410" y="402" width="140" height="50" rx="8" fill="#EEEDFE" stroke="#7F77DD" stroke-width="1"/>
<text font-size="13" font-weight="700" x="480" y="422" text-anchor="middle" fill="#26215C">QUAST</text>
<text font-size="11" x="480" y="440" text-anchor="middle" fill="#534AB7">Compare assemblies</text>

<line x1="550" y1="427" x2="585" y2="427" stroke="#7F77DD" stroke-width="1.2" marker-end="url(#arrow)"/>

<rect x="585" y="402" width="140" height="50" rx="8" fill="#EEEDFE" stroke="#7F77DD" stroke-width="1"/>
<text font-size="13" font-weight="700" x="655" y="422" text-anchor="middle" fill="#26215C">BUSCO</text>
<text font-size="11" x="655" y="440" text-anchor="middle" fill="#534AB7">Completeness</text>

<line x1="725" y1="427" x2="760" y2="427" stroke="#7F77DD" stroke-width="1.2" marker-end="url(#arrow)"/>

<rect x="760" y="402" width="150" height="50" rx="8" fill="#EEEDFE" stroke="#7F77DD" stroke-width="1"/>
<text font-size="13" font-weight="700" x="835" y="422" text-anchor="middle" fill="#26215C">CheckM2</text>
<text font-size="11" x="835" y="440" text-anchor="middle" fill="#534AB7">Contamination check</text>

<line x1="480" y1="452" x2="480" y2="500" stroke="#888888" stroke-width="1.2" marker-end="url(#arrow)"/>
<text font-size="10" font-style="italic" x="495" y="482" fill="#999999">selected scaffolds (.fasta)</text>

<!-- ===== PHASE 4 ===== -->
<text font-weight="700" font-size="14" x="50" y="520" fill="#993C1D">PHASE 4</text>
<text font-size="14" x="110" y="520" fill="#555555">Genome annotation</text>
<line x1="50" y1="528" x2="950" y2="528" stroke="#D0D0D0" stroke-width="0.8"/>

<rect x="150" y="544" width="600" height="52" rx="8" fill="#FAECE7" stroke="#D85A30" stroke-width="1"/>
<text font-size="14" font-weight="700" x="450" y="565" text-anchor="middle" fill="#4A1B0C">Prokka annotation (4 isolates + 132 reference genomes)</text>
<text font-size="11" x="450" y="584" text-anchor="middle" fill="#993C1D">Outputs: .faa (proteins)  .gff (features)  .gbk (GenBank) per genome</text>

<line x1="300" y1="596" x2="300" y2="650" stroke="#888888" stroke-width="1.2" marker-end="url(#arrow)"/>
<text font-size="10" font-style="italic" x="255" y="632" fill="#999999">.gff files</text>
<line x1="600" y1="596" x2="600" y2="650" stroke="#888888" stroke-width="1.2" marker-end="url(#arrow)"/>
<text font-size="10" font-style="italic" x="615" y="632" fill="#999999">.faa proteomes</text>

<!-- ===== PHASE 5 ===== -->
<text font-weight="700" font-size="14" x="50" y="670" fill="#854F0B">PHASE 5</text>
<text font-size="14" x="110" y="670" fill="#555555">Comparative genomics</text>
<line x1="50" y1="678" x2="950" y2="678" stroke="#D0D0D0" stroke-width="0.8"/>

<rect x="50" y="694" width="360" height="52" rx="8" fill="#FAEEDA" stroke="#EF9F27" stroke-width="1"/>
<text font-size="14" font-weight="700" x="230" y="715" text-anchor="middle" fill="#412402">Roary pan-genome analysis</text>
<text font-size="11" x="230" y="734" text-anchor="middle" fill="#854F0B">Core, accessory, and strain-specific gene clusters</text>

<rect x="440" y="694" width="420" height="52" rx="8" fill="#FAEEDA" stroke="#EF9F27" stroke-width="1"/>
<text font-size="14" font-weight="700" x="650" y="715" text-anchor="middle" fill="#412402">HMMER iodine transformation toolkit</text>
<text font-size="11" x="650" y="734" text-anchor="middle" fill="#854F0B">8 expanded categories  |  24+ Pfam domains  |  136 genomes  |  388 genes</text>

<line x1="230" y1="746" x2="230" y2="770" stroke="#888888" stroke-width="1"/>
<line x1="650" y1="746" x2="650" y2="770" stroke="#888888" stroke-width="1"/>
<line x1="230" y1="770" x2="650" y2="770" stroke="#888888" stroke-width="1"/>
<line x1="440" y1="770" x2="440" y2="802" stroke="#888888" stroke-width="1.2" marker-end="url(#arrow)"/>
<text font-size="10" font-style="italic" x="455" y="792" fill="#999999">toolkit hits + proteomes</text>

<!-- ===== PHASE 6 ===== -->
<text font-weight="700" font-size="14" x="50" y="822" fill="#0F6E56">PHASE 6</text>
<text font-size="14" x="110" y="822" fill="#555555">Functional characterization</text>
<line x1="50" y1="830" x2="950" y2="830" stroke="#D0D0D0" stroke-width="0.8"/>

<!-- Completed row -->
<rect x="50" y="846" width="250" height="52" rx="8" fill="#E1F5EE" stroke="#1D9E75" stroke-width="1"/>
<text font-size="13" font-weight="700" x="175" y="867" text-anchor="middle" fill="#085041">IslandViewer 4</text>
<text font-size="11" x="175" y="886" text-anchor="middle" fill="#0F6E56">Genomic islands (HGT detection)</text>

<rect x="325" y="846" width="250" height="52" rx="8" fill="#E1F5EE" stroke="#1D9E75" stroke-width="1"/>
<text font-size="13" font-weight="700" x="450" y="867" text-anchor="middle" fill="#085041">SignalP 6.0</text>
<text font-size="11" x="450" y="886" text-anchor="middle" fill="#0F6E56">Subcellular localization (Tat / Sec)</text>

<rect x="600" y="846" width="280" height="52" rx="8" fill="#E1F5EE" stroke="#1D9E75" stroke-width="1"/>
<text font-size="13" font-weight="700" x="740" y="867" text-anchor="middle" fill="#085041">Genus context scoring</text>
<text font-size="11" x="740" y="886" text-anchor="middle" fill="#0F6E56">z-scores vs 132 reference genomes</text>

<line x1="440" y1="898" x2="440" y2="928" stroke="#888888" stroke-width="1.2" marker-end="url(#arrow)"/>

<!-- Remaining row -->
<rect x="50" y="934" width="185" height="46" rx="8" fill="#F1EFE8" stroke="#B4B2A9" stroke-width="0.8"/>
<text font-size="12" font-weight="600" x="143" y="952" text-anchor="middle" fill="#444441">Clinker</text>
<text font-size="10" x="143" y="968" text-anchor="middle" fill="#888780">Gene synteny</text>

<rect x="260" y="934" width="185" height="46" rx="8" fill="#F1EFE8" stroke="#B4B2A9" stroke-width="0.8"/>
<text font-size="12" font-weight="600" x="353" y="952" text-anchor="middle" fill="#444441">eggNOG-mapper</text>
<text font-size="10" x="353" y="968" text-anchor="middle" fill="#888780">COG / KEGG / GO terms</text>

<rect x="470" y="934" width="185" height="46" rx="8" fill="#F1EFE8" stroke="#B4B2A9" stroke-width="0.8"/>
<text font-size="12" font-weight="600" x="563" y="952" text-anchor="middle" fill="#444441">ColabFold</text>
<text font-size="10" x="563" y="968" text-anchor="middle" fill="#888780">Structure prediction</text>

<rect x="680" y="934" width="185" height="46" rx="8" fill="#F1EFE8" stroke="#B4B2A9" stroke-width="0.8"/>
<text font-size="12" font-weight="600" x="773" y="952" text-anchor="middle" fill="#444441">PAML / HyPhy</text>
<text font-size="10" x="773" y="968" text-anchor="middle" fill="#888780">Selection analysis (dN/dS)</text>

<line x1="440" y1="980" x2="440" y2="1018" stroke="#888888" stroke-width="1.2" marker-end="url(#arrow)"/>
<text font-size="10" font-style="italic" x="455" y="1006" fill="#999999">all results integrated</text>

<!-- ===== PHASE 7 ===== -->
<text font-weight="700" font-size="14" x="50" y="1038" fill="#993556">PHASE 7</text>
<text font-size="14" x="110" y="1038" fill="#555555">Software development</text>
<line x1="50" y1="1046" x2="950" y2="1046" stroke="#D0D0D0" stroke-width="0.8"/>

<rect x="50" y="1064" width="270" height="52" rx="8" fill="#FBEAF0" stroke="#ED93B1" stroke-width="1"/>
<text font-size="14" font-weight="700" x="185" y="1085" text-anchor="middle" fill="#4B1528">Snakemake pipeline</text>
<text font-size="11" x="185" y="1104" text-anchor="middle" fill="#993556">Reproducible end-to-end workflow</text>

<rect x="345" y="1064" width="270" height="52" rx="8" fill="#FBEAF0" stroke="#ED93B1" stroke-width="1"/>
<text font-size="14" font-weight="700" x="480" y="1085" text-anchor="middle" fill="#4B1528">R package (iodhr)</text>
<text font-size="11" x="480" y="1104" text-anchor="middle" fill="#993556">Scoring, analysis, and visualization</text>

<rect x="640" y="1064" width="270" height="52" rx="8" fill="#FBEAF0" stroke="#ED93B1" stroke-width="1"/>
<text font-size="14" font-weight="700" x="775" y="1085" text-anchor="middle" fill="#4B1528">Shiny dashboard</text>
<text font-size="11" x="775" y="1104" text-anchor="middle" fill="#993556">Interactive web-based explorer</text>

<line x1="480" y1="1116" x2="480" y2="1156" stroke="#888888" stroke-width="1.2" marker-end="url(#arrow)"/>

<!-- ===== PHASE 8 ===== -->
<text font-weight="700" font-size="14" x="50" y="1176" fill="#3B6D11">PHASE 8</text>
<text font-size="14" x="110" y="1176" fill="#555555">Outputs and dissemination</text>
<line x1="50" y1="1184" x2="950" y2="1184" stroke="#D0D0D0" stroke-width="0.8"/>

<rect x="50" y="1200" width="195" height="44" rx="8" fill="#EAF3DE" stroke="#97C459" stroke-width="1"/>
<text font-size="13" font-weight="700" x="148" y="1226" text-anchor="middle" fill="#173404">GitHub repository</text>

<rect x="275" y="1200" width="195" height="44" rx="8" fill="#EAF3DE" stroke="#97C459" stroke-width="1"/>
<text font-size="13" font-weight="700" x="373" y="1226" text-anchor="middle" fill="#173404">PhD dissertation</text>

<rect x="500" y="1200" width="195" height="44" rx="8" fill="#EAF3DE" stroke="#97C459" stroke-width="1"/>
<text font-size="13" font-weight="700" x="598" y="1226" text-anchor="middle" fill="#173404">Tool paper</text>

<rect x="725" y="1200" width="195" height="44" rx="8" fill="#EAF3DE" stroke="#97C459" stroke-width="1"/>
<text font-size="13" font-weight="700" x="823" y="1226" text-anchor="middle" fill="#173404">Biology paper</text>

<!-- ===== LEGEND ===== -->
<rect x="50" y="1272" width="860" height="42" rx="8" fill="#F8F8F6" stroke="#DDDDDD" stroke-width="0.8"/>
<rect x="70" y="1287" width="14" height="14" rx="3" fill="#1D9E75"/><text font-size="11" x="90" y="1299" fill="#444444">Completed</text>
<rect x="190" y="1287" width="14" height="14" rx="3" fill="#378ADD"/><text font-size="11" x="210" y="1299" fill="#444444">Preprocessing</text>
<rect x="320" y="1287" width="14" height="14" rx="3" fill="#7F77DD"/><text font-size="11" x="340" y="1299" fill="#444444">Assembly</text>
<rect x="430" y="1287" width="14" height="14" rx="3" fill="#B4B2A9"/><text font-size="11" x="450" y="1299" fill="#444444">Remaining</text>
<rect x="550" y="1287" width="14" height="14" rx="3" fill="#ED93B1"/><text font-size="11" x="570" y="1299" fill="#444444">Software (to build)</text>
<rect x="720" y="1287" width="14" height="14" rx="3" fill="#97C459"/><text font-size="11" x="740" y="1299" fill="#444444">Deliverables</text>

</svg>